<svg width="383" height="48" viewBox="0 0 383 48" fill="none" xmlns="http://www.w3.org/2000/svg">
<g clip-path="url(#clip0_69_428)">
<rect width="383" height="48" rx="8" fill="white"/>
<path d="M247 -5H375C379.418 -5 383 -1.41828 383 3V45C383 49.4183 379.418 53 375 53H247V-5Z" fill="#B8E4DA"/>
<path d="M289.102 32.216C289.954 32.216 290.704 32.06 291.352 31.748C292.012 31.436 292.522 31.01 292.882 30.47C293.254 29.918 293.44 29.282 293.44 28.562C293.44 27.674 293.17 26.936 292.63 26.348C292.09 25.76 291.292 25.31 290.236 24.998L288.112 24.368C287.392 24.152 286.858 23.828 286.51 23.396C286.162 22.952 285.988 22.454 285.988 21.902C285.988 21.218 286.228 20.678 286.708 20.282C287.188 19.874 287.812 19.67 288.58 19.67C289.396 19.67 290.104 19.874 290.704 20.282C291.316 20.69 291.766 21.29 292.054 22.082L293.314 21.578C293.122 20.99 292.804 20.456 292.36 19.976C291.916 19.496 291.37 19.112 290.722 18.824C290.086 18.524 289.366 18.374 288.562 18.374C287.794 18.374 287.104 18.53 286.492 18.842C285.892 19.154 285.418 19.586 285.07 20.138C284.722 20.678 284.548 21.302 284.548 22.01C284.548 22.838 284.8 23.576 285.304 24.224C285.82 24.872 286.552 25.334 287.5 25.61L289.912 26.33C290.584 26.522 291.1 26.798 291.46 27.158C291.82 27.518 292 28.028 292 28.688C292 29.36 291.73 29.9 291.19 30.308C290.662 30.716 289.966 30.92 289.102 30.92C288.19 30.92 287.404 30.686 286.744 30.218C286.084 29.738 285.598 29.042 285.286 28.13L283.99 28.616C284.194 29.276 284.536 29.882 285.016 30.434C285.496 30.974 286.084 31.406 286.78 31.73C287.476 32.054 288.25 32.216 289.102 32.216ZM296.023 20.57H297.373V18.59H296.023V20.57ZM296.023 32H297.373V22.352H296.023V32ZM304.708 35.96C305.596 35.96 306.382 35.768 307.066 35.384C307.762 35.012 308.302 34.496 308.686 33.836C309.082 33.188 309.28 32.45 309.28 31.622V22.352H307.93V23.81C307.546 23.294 307.054 22.886 306.454 22.586C305.854 22.286 305.2 22.136 304.492 22.136C303.58 22.136 302.764 22.352 302.044 22.784C301.336 23.216 300.772 23.798 300.352 24.53C299.944 25.262 299.74 26.084 299.74 26.996C299.74 27.896 299.944 28.718 300.352 29.462C300.772 30.194 301.342 30.776 302.062 31.208C302.782 31.64 303.592 31.856 304.492 31.856C305.2 31.856 305.86 31.7 306.472 31.388C307.084 31.076 307.57 30.638 307.93 30.074V31.622C307.93 32.27 307.78 32.816 307.48 33.26C307.18 33.704 306.784 34.04 306.292 34.268C305.8 34.496 305.26 34.61 304.672 34.61C303.904 34.61 303.274 34.442 302.782 34.106C302.29 33.77 301.948 33.374 301.756 32.918L300.514 33.584C300.838 34.28 301.366 34.85 302.098 35.294C302.842 35.738 303.712 35.96 304.708 35.96ZM304.564 30.506C303.916 30.506 303.334 30.35 302.818 30.038C302.314 29.714 301.912 29.288 301.612 28.76C301.324 28.22 301.18 27.632 301.18 26.996C301.18 26.348 301.324 25.76 301.612 25.232C301.912 24.704 302.32 24.284 302.836 23.972C303.352 23.648 303.928 23.486 304.564 23.486C305.188 23.486 305.752 23.648 306.256 23.972C306.76 24.284 307.162 24.71 307.462 25.25C307.774 25.778 307.93 26.36 307.93 26.996C307.93 27.632 307.774 28.22 307.462 28.76C307.162 29.288 306.76 29.714 306.256 30.038C305.752 30.35 305.188 30.506 304.564 30.506ZM312.054 32H313.404V26.258C313.404 25.394 313.644 24.716 314.124 24.224C314.604 23.732 315.21 23.486 315.942 23.486C316.686 23.486 317.286 23.732 317.742 24.224C318.21 24.704 318.444 25.382 318.444 26.258V32H319.794V25.736C319.794 25.052 319.632 24.44 319.308 23.9C318.996 23.348 318.564 22.916 318.012 22.604C317.472 22.292 316.86 22.136 316.176 22.136C315.576 22.136 315.036 22.262 314.556 22.514C314.076 22.766 313.692 23.108 313.404 23.54V22.352H312.054V32ZM328.851 32.216C329.451 32.216 329.991 32.09 330.471 31.838C330.951 31.586 331.335 31.244 331.623 30.812V32H332.973V22.352H331.623V28.094C331.623 28.958 331.383 29.636 330.903 30.128C330.435 30.62 329.829 30.866 329.085 30.866C328.353 30.866 327.753 30.632 327.285 30.164C326.817 29.684 326.583 29.054 326.583 28.274V22.352H325.233V28.436C325.233 29.18 325.389 29.84 325.701 30.416C326.025 30.98 326.463 31.424 327.015 31.748C327.567 32.06 328.179 32.216 328.851 32.216ZM335.749 35.6H337.099V30.434C337.459 30.998 337.951 31.436 338.575 31.748C339.199 32.06 339.883 32.216 340.627 32.216C341.539 32.216 342.349 32 343.057 31.568C343.777 31.124 344.341 30.524 344.749 29.768C345.169 29 345.379 28.136 345.379 27.176C345.379 26.204 345.169 25.34 344.749 24.584C344.341 23.828 343.777 23.234 343.057 22.802C342.349 22.358 341.539 22.136 340.627 22.136C339.871 22.136 339.193 22.286 338.593 22.586C337.993 22.886 337.495 23.294 337.099 23.81V22.352H335.749V35.6ZM340.555 30.866C339.907 30.866 339.319 30.704 338.791 30.38C338.275 30.056 337.861 29.618 337.549 29.066C337.249 28.502 337.099 27.872 337.099 27.176C337.099 26.48 337.249 25.856 337.549 25.304C337.861 24.74 338.275 24.296 338.791 23.972C339.319 23.648 339.907 23.486 340.555 23.486C341.203 23.486 341.779 23.648 342.283 23.972C342.799 24.296 343.201 24.734 343.489 25.286C343.789 25.838 343.939 26.468 343.939 27.176C343.939 27.872 343.789 28.502 343.489 29.066C343.201 29.618 342.799 30.056 342.283 30.38C341.779 30.704 341.203 30.866 340.555 30.866Z" fill="#072125"/>
<path d="M25.6543 31H34.2943V29.65H27.0943V24.952H33.9343V23.602H27.0943V18.94H34.2943V17.59H25.6543V31ZM36.4778 31H37.8278V25.258C37.8278 24.394 38.0678 23.716 38.5478 23.224C39.0278 22.732 39.6338 22.486 40.3658 22.486C41.1098 22.486 41.7098 22.732 42.1658 23.224C42.6338 23.704 42.8678 24.382 42.8678 25.258V31H44.2178V24.736C44.2178 24.052 44.0558 23.44 43.7318 22.9C43.4198 22.348 42.9878 21.916 42.4358 21.604C41.8958 21.292 41.2838 21.136 40.5998 21.136C39.9998 21.136 39.4598 21.262 38.9798 21.514C38.4998 21.766 38.1158 22.108 37.8278 22.54V21.352H36.4778V31ZM50.4862 31.108C50.5942 31.108 50.7382 31.102 50.9182 31.09C51.0982 31.078 51.2602 31.054 51.4042 31.018V29.794C51.3082 29.806 51.1942 29.818 51.0622 29.83C50.9302 29.842 50.8162 29.848 50.7202 29.848C50.1202 29.848 49.7062 29.692 49.4782 29.38C49.2502 29.068 49.1362 28.672 49.1362 28.192V22.702H51.2602V21.352H49.1362V19.12H47.7862V19.93C47.7862 20.338 47.6662 20.68 47.4262 20.956C47.1862 21.22 46.8622 21.352 46.4542 21.352H46.0042V22.702H47.7862V28.192C47.7862 29.128 48.0202 29.848 48.4882 30.352C48.9562 30.856 49.6222 31.108 50.4862 31.108ZM57.8151 31.216C58.4751 31.216 59.0751 31.108 59.6151 30.892C60.1671 30.664 60.6411 30.37 61.0371 30.01C61.4331 29.638 61.7271 29.236 61.9191 28.804L60.7671 28.192C60.4671 28.696 60.0771 29.116 59.5971 29.452C59.1171 29.788 58.5231 29.956 57.8151 29.956C57.2391 29.956 56.6991 29.818 56.1951 29.542C55.6911 29.266 55.2771 28.882 54.9531 28.39C54.6411 27.886 54.4731 27.286 54.4491 26.59H62.0451C62.0691 26.434 62.0871 26.284 62.0991 26.14C62.1111 25.984 62.1171 25.846 62.1171 25.726C62.1171 25.15 62.0151 24.592 61.8111 24.052C61.6071 23.5 61.3131 23.008 60.9291 22.576C60.5451 22.132 60.0771 21.784 59.5251 21.532C58.9851 21.268 58.3671 21.136 57.6711 21.136C56.7951 21.136 56.0031 21.352 55.2951 21.784C54.5991 22.216 54.0471 22.81 53.6391 23.566C53.2311 24.31 53.0271 25.168 53.0271 26.14C53.0271 27.112 53.2371 27.982 53.6571 28.75C54.0771 29.518 54.6471 30.124 55.3671 30.568C56.0991 31 56.9151 31.216 57.8151 31.216ZM57.6711 22.396C58.2111 22.396 58.7031 22.522 59.1471 22.774C59.6031 23.026 59.9631 23.374 60.2271 23.818C60.5031 24.25 60.6471 24.754 60.6591 25.33H54.4851C54.5571 24.73 54.7431 24.214 55.0431 23.782C55.3551 23.338 55.7391 22.996 56.1951 22.756C56.6511 22.516 57.1431 22.396 57.6711 22.396ZM64.4973 31H65.8473V25.06C65.8473 24.268 66.0573 23.656 66.4773 23.224C66.8973 22.792 67.4553 22.576 68.1513 22.576H68.9973V21.226H68.3853C67.7973 21.226 67.2873 21.328 66.8553 21.532C66.4353 21.736 66.0993 22.024 65.8473 22.396V21.352H64.4973V31ZM73.836 34.96C74.472 34.96 75.012 34.828 75.456 34.564C75.9 34.312 76.266 33.976 76.554 33.556C76.854 33.136 77.1 32.692 77.292 32.224L81.702 21.334H80.208L77.058 29.308L73.908 21.334H72.45L76.302 31L75.96 31.828C75.66 32.524 75.354 32.992 75.042 33.232C74.73 33.484 74.28 33.61 73.692 33.61C73.5 33.61 73.308 33.592 73.116 33.556C72.936 33.532 72.786 33.514 72.666 33.502V34.762C72.858 34.834 73.05 34.882 73.242 34.906C73.446 34.942 73.644 34.96 73.836 34.96ZM87.6306 31.216C88.5306 31.216 89.3466 31 90.0786 30.568C90.8226 30.136 91.4166 29.542 91.8606 28.786C92.3046 28.018 92.5266 27.142 92.5266 26.158C92.5266 25.186 92.3106 24.322 91.8786 23.566C91.4586 22.81 90.8766 22.216 90.1326 21.784C89.4006 21.352 88.5666 21.136 87.6306 21.136C86.6946 21.136 85.8546 21.358 85.1106 21.802C84.3786 22.234 83.7966 22.828 83.3646 23.584C82.9326 24.34 82.7166 25.198 82.7166 26.158C82.7166 27.13 82.9326 28 83.3646 28.768C83.8086 29.524 84.4026 30.124 85.1466 30.568C85.8906 31 86.7186 31.216 87.6306 31.216ZM87.6306 29.866C86.9826 29.866 86.3946 29.704 85.8666 29.38C85.3506 29.056 84.9366 28.612 84.6246 28.048C84.3126 27.484 84.1566 26.854 84.1566 26.158C84.1566 25.462 84.3126 24.838 84.6246 24.286C84.9366 23.734 85.3506 23.296 85.8666 22.972C86.3946 22.648 86.9826 22.486 87.6306 22.486C88.2786 22.486 88.8606 22.648 89.3766 22.972C89.9046 23.296 90.3186 23.734 90.6186 24.286C90.9306 24.838 91.0866 25.462 91.0866 26.158C91.0866 26.854 90.9306 27.484 90.6186 28.048C90.3186 28.612 89.9046 29.056 89.3766 29.38C88.8606 29.704 88.2786 29.866 87.6306 29.866ZM98.3275 31.216C98.9275 31.216 99.4675 31.09 99.9475 30.838C100.427 30.586 100.811 30.244 101.099 29.812V31H102.449V21.352H101.099V27.094C101.099 27.958 100.859 28.636 100.379 29.128C99.9115 29.62 99.3055 29.866 98.5615 29.866C97.8295 29.866 97.2295 29.632 96.7615 29.164C96.2935 28.684 96.0595 28.054 96.0595 27.274V21.352H94.7095V27.436C94.7095 28.18 94.8655 28.84 95.1775 29.416C95.5015 29.98 95.9395 30.424 96.4915 30.748C97.0435 31.06 97.6555 31.216 98.3275 31.216ZM105.226 31H106.576V25.06C106.576 24.268 106.786 23.656 107.206 23.224C107.626 22.792 108.184 22.576 108.88 22.576H109.726V21.226H109.114C108.526 21.226 108.016 21.328 107.584 21.532C107.164 21.736 106.828 22.024 106.576 22.396V21.352H105.226V31ZM118.758 31.216C119.418 31.216 120.018 31.108 120.558 30.892C121.11 30.664 121.584 30.37 121.98 30.01C122.376 29.638 122.67 29.236 122.862 28.804L121.71 28.192C121.41 28.696 121.02 29.116 120.54 29.452C120.06 29.788 119.466 29.956 118.758 29.956C118.182 29.956 117.642 29.818 117.138 29.542C116.634 29.266 116.22 28.882 115.896 28.39C115.584 27.886 115.416 27.286 115.392 26.59H122.988C123.012 26.434 123.03 26.284 123.042 26.14C123.054 25.984 123.06 25.846 123.06 25.726C123.06 25.15 122.958 24.592 122.754 24.052C122.55 23.5 122.256 23.008 121.872 22.576C121.488 22.132 121.02 21.784 120.468 21.532C119.928 21.268 119.31 21.136 118.614 21.136C117.738 21.136 116.946 21.352 116.238 21.784C115.542 22.216 114.99 22.81 114.582 23.566C114.174 24.31 113.97 25.168 113.97 26.14C113.97 27.112 114.18 27.982 114.6 28.75C115.02 29.518 115.59 30.124 116.31 30.568C117.042 31 117.858 31.216 118.758 31.216ZM118.614 22.396C119.154 22.396 119.646 22.522 120.09 22.774C120.546 23.026 120.906 23.374 121.17 23.818C121.446 24.25 121.59 24.754 121.602 25.33H115.428C115.5 24.73 115.686 24.214 115.986 23.782C116.298 23.338 116.682 22.996 117.138 22.756C117.594 22.516 118.086 22.396 118.614 22.396ZM125.441 31H126.791V25.258C126.791 24.394 127.025 23.716 127.493 23.224C127.961 22.732 128.543 22.486 129.239 22.486C129.935 22.486 130.511 22.732 130.967 23.224C131.423 23.704 131.651 24.382 131.651 25.258V31H133.001V25.258C133.001 24.394 133.235 23.716 133.703 23.224C134.171 22.732 134.753 22.486 135.449 22.486C136.145 22.486 136.721 22.732 137.177 23.224C137.633 23.704 137.861 24.382 137.861 25.258V31H139.211V24.736C139.211 24.052 139.043 23.44 138.707 22.9C138.383 22.348 137.945 21.916 137.393 21.604C136.853 21.292 136.259 21.136 135.611 21.136C134.963 21.136 134.363 21.292 133.811 21.604C133.271 21.916 132.857 22.372 132.569 22.972C132.269 22.42 131.843 21.976 131.291 21.64C130.739 21.304 130.133 21.136 129.473 21.136C128.921 21.136 128.405 21.262 127.925 21.514C127.457 21.754 127.079 22.096 126.791 22.54V21.352H125.441V31ZM144.578 31.216C145.322 31.216 145.994 31.066 146.594 30.766C147.194 30.466 147.65 30.082 147.962 29.614V31H149.312V24.376C149.312 23.74 149.156 23.182 148.844 22.702C148.544 22.21 148.118 21.826 147.566 21.55C147.026 21.274 146.402 21.136 145.694 21.136C145.154 21.136 144.632 21.238 144.128 21.442C143.624 21.634 143.174 21.898 142.778 22.234C142.394 22.57 142.112 22.942 141.932 23.35L143.156 24.016C143.372 23.548 143.702 23.17 144.146 22.882C144.59 22.582 145.106 22.432 145.694 22.432C146.366 22.432 146.912 22.612 147.332 22.972C147.752 23.332 147.962 23.8 147.962 24.376V24.88L144.47 25.456C143.402 25.636 142.622 26.002 142.13 26.554C141.638 27.106 141.392 27.754 141.392 28.498C141.392 29.026 141.53 29.494 141.806 29.902C142.082 30.31 142.46 30.634 142.94 30.874C143.42 31.102 143.966 31.216 144.578 31.216ZM142.832 28.444C142.832 28 142.982 27.616 143.282 27.292C143.594 26.968 144.098 26.746 144.794 26.626L147.962 26.104V26.824C147.962 27.412 147.824 27.946 147.548 28.426C147.272 28.906 146.888 29.29 146.396 29.578C145.904 29.854 145.328 29.992 144.668 29.992C144.128 29.992 143.684 29.842 143.336 29.542C143 29.242 142.832 28.876 142.832 28.444ZM152.089 19.57H153.439V17.59H152.089V19.57ZM152.089 31H153.439V21.352H152.089V31ZM156.202 31H157.552V17.59H156.202V31Z" fill="#20484F" fill-opacity="0.2"/>
</g>
<rect x="0.5" y="0.5" width="382" height="47" rx="7.5" stroke="#20484F"/>
<defs>
<clipPath id="clip0_69_428">
<rect width="383" height="48" rx="8" fill="white"/>
</clipPath>
</defs>
</svg>
